<?xml version="1.0" encoding="utf-8"?>
<!-- Generator: Adobe Illustrator 24.0.0, SVG Export Plug-In . SVG Version: 6.00 Build 0)  -->
<svg version="1.1" id="Layer_1" xmlns="http://www.w3.org/2000/svg" xmlns:xlink="http://www.w3.org/1999/xlink" x="0px" y="0px"
	 viewBox="0 0 100 100" style="enable-background:new 0 0 100 100;" xml:space="preserve">
<style type="text/css">
	.st0{fill:none;}
	.st1{fill:#FFFFFF;}
</style>
<rect x="-0.1" class="st0" width="100" height="100"/>
<path class="st1" d="M46.1,35.5V3.8c0-2.1,1.7-3.8,3.8-3.8s3.8,1.7,3.8,3.8v31.7c0,2.1-1.7,3.8-3.8,3.8S46.1,37.6,46.1,35.5z
	 M71.9,16.3c-1.8-1-4.1-0.4-5.2,1.4c-1,1.8-0.4,4.1,1.4,5.2C79.7,29.5,87,41.9,87,55.2c0,20.5-16.7,37.2-37.2,37.2
	S12.6,75.7,12.6,55.2c0-13.3,7.2-25.7,18.9-32.3c1.8-1,2.5-3.3,1.4-5.2c-1-1.8-3.3-2.5-5.2-1.4C13.7,24.3,5,39.2,5,55.2
	C5.2,79.9,25.2,100,49.9,100s44.7-20.1,44.7-44.7C94.6,39.2,85.9,24.3,71.9,16.3z"/>
</svg>
