<?xml version="1.0" encoding="utf-8"?>
<!-- Generator: Adobe Illustrator 24.0.0, SVG Export Plug-In . SVG Version: 6.00 Build 0)  -->
<svg version="1.1" id="Layer_1" xmlns="http://www.w3.org/2000/svg" xmlns:xlink="http://www.w3.org/1999/xlink" x="0px" y="0px"
	 viewBox="0 0 100 100" style="enable-background:new 0 0 100 100;" xml:space="preserve">
<style type="text/css">
	.st0{fill:#FFFFFF;}
</style>
<g>
	<g>
		<path class="st0" d="M80.8,26.3c0-0.9-0.4-1.8-1.1-2.2L47.4,0.3c-0.9-0.6-2-0.6-2.9-0.2S43,1.6,43,2.6v41.7L23.7,30.2
			c-1.3-0.9-3.1-0.6-4,0.5c-0.9,1.2-0.6,3.1,0.5,4l20.6,15.1L20.5,65.1c-1.3,0.9-1.5,2.7-0.5,4c0.5,0.8,1.4,1.1,2.2,1.1
			c0.5,0,1.1-0.2,1.7-0.5l19-14.1v41.7c0,1,0.5,2,1.5,2.4c0.4,0.2,0.8,0.4,1.3,0.4c0.5,0,1.1-0.2,1.7-0.5l32.2-23.6
			c0.6-0.5,1.1-1.3,1.1-2.2s-0.4-1.8-1.1-2.2L50.5,50l29.1-21.4C80.3,28.1,80.8,27.2,80.8,26.3z M73.3,73.6L48.6,91.7V55.5
			L73.3,73.6z M48.6,44.4V8.2l24.7,18.1L48.6,44.4z"/>
	</g>
</g>
</svg>
