<?xml version="1.0" encoding="utf-8"?>
<!-- Generator: Adobe Illustrator 24.0.0, SVG Export Plug-In . SVG Version: 6.00 Build 0)  -->
<svg version="1.1" id="Layer_1" xmlns="http://www.w3.org/2000/svg" xmlns:xlink="http://www.w3.org/1999/xlink" x="0px" y="0px"
	 viewBox="0 0 100 100" style="enable-background:new 0 0 100 100;" xml:space="preserve">
<style type="text/css">
	.st0{fill:#FFFFFF;}
</style>
<g>
	<g>
		<path class="st0" d="M19.4,98.9c-2.2,0-4.5-0.6-6.7-1.9C8.4,94.5,6,90.2,6.1,85.2V14.5c0-4.7,2.6-9.1,6.7-11.5
			c2-1.2,4.3-1.8,6.7-1.8c2.4,0,4.7,0.6,6.7,1.8l61.2,35.5c4.1,2.2,6.6,6.7,6.6,11.6c0,4.8-2.6,9.2-6.7,11.6L26.1,97
			C24.1,98.2,21.7,98.9,19.4,98.9z M14.5,85.2c0,1.9,0.9,3.5,2.6,4.5c0.8,0.5,1.6,0.7,2.5,0.7c0.8,0,1.7-0.2,2.6-0.7l61.1-35.3
			c2.4-1.6,2.6-3.6,2.6-4.5c0-2.6-1.4-3.9-2.7-4.5L22,10.1c-1-0.6-1.9-0.7-2.6-0.7c-1.3,0-2.2,0.4-2.6,0.7c-1,0.5-2.6,1.9-2.6,4.5v1
			h0.3V85.2z"/>
		<path d="M19.5,2.2c2.2,0,4.3,0.6,6.2,1.7l61.2,35.5l0,0l0,0c3.7,2,6.1,6.1,6.1,10.7c0,4.4-2.4,8.6-6.2,10.8L25.6,96.2
			c-1.9,1.1-4.1,1.7-6.2,1.7c-2,0-4.2-0.6-6.2-1.7c-4-2.4-6.2-6.4-6.1-11V14.5c0-4.3,2.4-8.4,6.2-10.7C15.2,2.7,17.3,2.2,19.5,2.2
			 M16.3,9.3c-1.6,0.8-3.1,2.7-3.1,5.3v2h0.3v68.6c0,2.3,1.1,4.2,3.1,5.3c0.9,0.5,1.9,0.8,3,0.8c1,0,2-0.3,3-0.8l0.1,0l0.1,0
			l61-35.3l0.1,0l0.1,0c2.7-1.8,3-4.3,3-5.3c0-3.1-1.7-4.6-3.1-5.4L22.5,9.3c-1.3-0.8-2.3-0.9-3.1-0.9C18.2,8.4,17.1,8.7,16.3,9.3
			 M19.5,0.2c-2.5,0-5,0.7-7.2,1.9C7.9,4.7,5.1,9.4,5.1,14.5v70.7c-0.1,5.4,2.6,10,7.1,12.7c2.3,1.3,4.8,2,7.2,2s5-0.7,7.2-2
			l61.2-35.3C92.3,60,95,55.2,95,50.1s-2.5-10-7.1-12.5L26.7,2.1C24.5,0.8,22,0.2,19.5,0.2L19.5,0.2z M15.2,14.6
			c0-2.2,1.4-3.3,2.1-3.6c0.4-0.3,1.1-0.6,2.1-0.6c0.7,0,1.3,0.1,2.1,0.6l61.2,35.3c2,1,2.1,2.8,2.1,3.6s-0.3,2.4-2.1,3.6l-61,35.3
			c-0.8,0.4-1.5,0.5-2.1,0.5c-0.9,0-1.6-0.3-2-0.5c-0.7-0.4-2.1-1.4-2.1-3.6V14.6H15.2L15.2,14.6z"/>
	</g>
</g>
</svg>
