<?xml version="1.0" encoding="utf-8"?>
<!-- Generator: Adobe Illustrator 24.0.0, SVG Export Plug-In . SVG Version: 6.00 Build 0)  -->
<svg version="1.1"
	 id="Layer_1" xmlns:cc="http://creativecommons.org/ns#" xmlns:dc="http://purl.org/dc/elements/1.1/" xmlns:inkscape="http://www.inkscape.org/namespaces/inkscape" xmlns:rdf="http://www.w3.org/1999/02/22-rdf-syntax-ns#" xmlns:sodipodi="http://sodipodi.sourceforge.net/DTD/sodipodi-0.dtd" xmlns:svg="http://www.w3.org/2000/svg"
	 xmlns="http://www.w3.org/2000/svg" xmlns:xlink="http://www.w3.org/1999/xlink" x="0px" y="0px" viewBox="0 0 100 100"
	 style="enable-background:new 0 0 100 100;" xml:space="preserve">
<style type="text/css">
	.st0{fill:#5B5B5B;}
</style>
<g transform="translate(0,-952.36218)">
	<g>
		<path class="st0" d="M50,1052.2c-1.8,0-3.2-1.5-3.2-3.2v-18.6c0-1.8,1.5-3.2,3.2-3.2c1.8,0,3.2,1.4,3.2,3.2v18.6
			C53.2,1050.7,51.8,1052.2,50,1052.2z M82.9,1038.5c-0.9,0-1.7-0.3-2.3-1l-13.2-13.2c-0.6-0.6-1-1.3-1-2.2s0.3-1.7,1-2.4
			c0.8-0.8,1.7-0.9,2.3-0.9c0.9,0,1.7,0.3,2.2,0.9l13.2,13.2c0.6,0.6,1,1.3,1,2.2c0,0.9-0.3,1.7-1,2.4
			C84.5,1038.2,83.7,1038.5,82.9,1038.5z M17.1,1038.5c-0.9,0-1.7-0.3-2.3-1c-0.6-0.6-1-1.3-1-2.2c0-0.9,0.3-1.7,1-2.4l13.2-13.2
			c0.8-0.8,1.7-0.9,2.3-0.9c0.9,0,1.7,0.3,2.2,0.9c0.6,0.6,1,1.4,1,2.2c0,0.9-0.3,1.7-1,2.4l-13.2,13.2
			C18.7,1038.2,17.9,1038.5,17.1,1038.5z M50,1017.2c-8.2,0-14.9-6.7-14.9-14.9s6.7-14.9,14.9-14.9s14.8,6.7,14.8,14.9
			S58.2,1017.2,50,1017.2z M77.9,1005.7c-1.8,0-3.2-1.5-3.2-3.2s1.5-3.2,3.2-3.2h18.6c1.8,0,3.2,1.5,3.2,3.2s-1.5,3.2-3.2,3.2H77.9z
			 M3.5,1005.7c-1.8,0-3.2-1.5-3.2-3.2s1.5-3.2,3.2-3.2h18.6c1.8,0,3.2,1.5,3.2,3.2s-1.5,3.2-3.2,3.2H3.5z M69.7,985.9
			c-0.9,0-1.7-0.3-2.3-1c-0.6-0.6-1-1.3-1-2.2s0.3-1.7,1-2.4l13.2-13.2c0.8-0.8,1.7-0.9,2.3-0.9c0.9,0,1.7,0.3,2.2,0.9
			c0.6,0.6,1,1.4,1,2.2c0,0.9-0.3,1.7-1,2.4l-13.2,13.2C71.3,985.6,70.5,985.9,69.7,985.9z M30.3,985.9c-0.9,0-1.7-0.3-2.3-1
			l-13.2-13.2c-0.6-0.6-1-1.3-1-2.2s0.3-1.7,1-2.4c0.8-0.8,1.7-0.9,2.3-0.9s1.6,0.2,2.3,0.9l13.1,13.2c0.6,0.6,1,1.3,1,2.2
			s-0.3,1.7-1,2.4C31.9,985.6,31.1,985.9,30.3,985.9z M50,977.7c-1.8,0-3.2-1.5-3.2-3.2v-18.6c0-1.8,1.5-3.2,3.2-3.2
			c1.8,0,3.2,1.4,3.2,3.2v18.6C53.2,976.3,51.8,977.7,50,977.7z"/>
		<path class="st0" d="M50,952.9c1.7,0,3,1.3,3,3v18.6c0,1.6-1.4,3-3,3s-3-1.4-3-3v-18.6C47,954.3,48.4,952.9,50,952.9 M82.9,966.5
			c0.5,0,1.4,0.1,2,0.8l0,0l0,0c0.6,0.5,0.9,1.2,0.9,2s-0.3,1.6-0.9,2.2l-13.2,13.2c-0.5,0.6-1.3,0.9-2,0.9c-0.8,0-1.6-0.3-2.1-0.9
			c-0.6-0.5-0.9-1.2-0.9-2s0.3-1.6,0.9-2.2l13.2-13.2C81.5,966.6,82.3,966.5,82.9,966.5 M17.1,966.5c0.6,0,1.4,0.1,2.1,0.9
			l13.1,13.2c0.6,0.5,0.9,1.2,0.9,2s-0.3,1.6-0.9,2.2c-0.5,0.6-1.3,0.9-2,0.9c-0.8,0-1.6-0.3-2.1-0.9L15,971.6
			c-0.6-0.5-0.9-1.2-0.9-2s0.3-1.6,0.9-2.2C15.7,966.6,16.5,966.5,17.1,966.5 M50,987.7c8.1,0,14.6,6.5,14.6,14.6
			s-6.5,14.6-14.6,14.6s-14.6-6.5-14.6-14.6S41.9,987.7,50,987.7 M96.5,999.4c1.6,0,3,1.4,3,3s-1.4,3-3,3H77.9c-1.6,0-3-1.4-3-3
			s1.4-3,3-3H96.5 M22.1,999.4c1.6,0,3,1.4,3,3s-1.4,3-3,3H3.5c-1.6,0-3-1.4-3-3s1.4-3,3-3H22.1 M69.7,1019.1c0.5,0,1.4,0.1,2,0.9
			l13.2,13.2c0.6,0.5,0.9,1.2,0.9,2s-0.3,1.6-0.9,2.2c-0.5,0.6-1.3,0.9-2,0.9c-0.8,0-1.6-0.3-2.1-0.9l-13.2-13.2
			c-0.6-0.5-0.9-1.2-0.9-2s0.3-1.6,0.9-2.2C68.3,1019.2,69.1,1019.1,69.7,1019.1 M30.3,1019.1c0.5,0,1.4,0.1,2,0.8l0,0l0,0
			c0.6,0.5,0.9,1.2,0.9,2s-0.3,1.6-0.9,2.2l-13.2,13.2c-0.5,0.6-1.3,0.9-2,0.9c-0.8,0-1.6-0.3-2.1-0.9c-0.6-0.5-0.9-1.2-0.9-2
			s0.3-1.6,0.9-2.2l13.2-13.2C28.9,1019.2,29.7,1019.1,30.3,1019.1 M50,1027.3c1.7,0,3,1.3,3,3v18.6c0,1.6-1.4,3-3,3s-3-1.4-3-3
			v-18.6C47,1028.7,48.4,1027.3,50,1027.3 M50,952.4c-1.9,0-3.5,1.6-3.5,3.5v18.6c0,1.9,1.6,3.5,3.5,3.5s3.5-1.6,3.5-3.5v-18.6
			C53.5,953.9,51.9,952.4,50,952.4L50,952.4z M82.9,966c-0.9,0-1.8,0.3-2.5,1l-13.2,13.2c-1.4,1.4-1.4,3.6,0,4.9
			c0.7,0.7,1.6,1.1,2.5,1.1s1.8-0.4,2.4-1.1l13.2-13.2c1.4-1.4,1.4-3.6,0-4.9C84.7,966.3,83.8,966,82.9,966L82.9,966z M17.1,966
			c-0.9,0-1.8,0.3-2.5,1c-1.4,1.4-1.4,3.6,0,4.9l13.2,13.2c0.7,0.7,1.6,1.1,2.5,1.1s1.8-0.4,2.4-1.1c1.4-1.4,1.4-3.6,0-4.9L19.6,967
			C18.9,966.3,18,966,17.1,966L17.1,966z M50,987.2c-8.3,0-15.1,6.8-15.1,15.1s6.8,15.1,15.1,15.1s15.1-6.8,15.1-15.1
			S58.3,987.2,50,987.2L50,987.2z M96.5,998.9H77.9c-1.9,0-3.5,1.6-3.5,3.5s1.6,3.5,3.5,3.5h18.6c1.9,0,3.5-1.6,3.5-3.5
			S98.4,998.9,96.5,998.9L96.5,998.9z M22.1,998.9H3.5c-1.9,0-3.5,1.6-3.5,3.5s1.6,3.5,3.5,3.5h18.6c1.9,0,3.5-1.6,3.5-3.5
			S24,998.9,22.1,998.9L22.1,998.9z M69.7,1018.6c-0.9,0-1.8,0.3-2.5,1c-1.4,1.4-1.4,3.6,0,4.9l13.2,13.2c0.7,0.7,1.6,1.1,2.5,1.1
			s1.8-0.3,2.4-1.1c1.4-1.4,1.4-3.6,0-4.9l-13.2-13.2C71.5,1018.9,70.6,1018.6,69.7,1018.6L69.7,1018.6z M30.3,1018.6
			c-0.9,0-1.8,0.3-2.5,1l-13.2,13.2c-1.4,1.4-1.4,3.6,0,4.9c0.7,0.7,1.6,1.1,2.5,1.1s1.8-0.3,2.4-1.1l13.2-13.2
			c1.4-1.4,1.4-3.6,0-4.9C32.1,1018.9,31.2,1018.6,30.3,1018.6L30.3,1018.6z M50,1026.8c-1.9,0-3.5,1.6-3.5,3.5v18.6
			c0,1.9,1.6,3.5,3.5,3.5s3.5-1.6,3.5-3.5v-18.6C53.5,1028.3,51.9,1026.8,50,1026.8L50,1026.8z"/>
	</g>
</g>
</svg>
