<?xml version="1.0" encoding="utf-8"?>
<!-- Generator: Adobe Illustrator 24.0.0, SVG Export Plug-In . SVG Version: 6.00 Build 0)  -->
<svg version="1.1" id="Layer_1" xmlns="http://www.w3.org/2000/svg" xmlns:xlink="http://www.w3.org/1999/xlink" x="0px" y="0px"
	 viewBox="0 0 100 100" style="enable-background:new 0 0 100 100;" xml:space="preserve">
<style type="text/css">
	.st0{fill:#666666;}
</style>
<g>
	<g>
		<path class="st0" d="M20.3,99.5c-2.4,0-4.8-0.6-7-1.9c-4.4-2.6-7-7.2-6.8-12.2V14.5c0-5,2.7-9.6,7-12.1c2.1-1.2,4.6-1.9,7-1.9
			c2.4,0,4.8,0.6,7,1.9L88.7,38c4.3,2.5,7,7.1,7,12.1c0,5-2.7,9.6-7,12.1L27.3,97.6C25.3,98.8,22.8,99.5,20.3,99.5z M15.8,85.4
			c0,1.7,0.8,3.2,2.3,4c0.4,0.2,1.2,0.6,2.3,0.6c0.8,0,1.6-0.2,2.3-0.6L84,54c2.1-1.3,2.3-3.3,2.3-4c0-2.3-1.3-3.5-2.3-4.1
			L22.6,10.5c-0.8-0.4-1.5-0.6-2.3-0.6c-1.1,0-1.9,0.3-2.3,0.6c-1.5,0.9-2.3,2.3-2.3,4v0.5h0.1V85.4z"/>
		<path d="M20.4,1c2.3,0,4.7,0.6,6.7,1.8l61.2,35.7c4.2,2.4,6.7,6.8,6.7,11.7s-2.6,9.3-6.7,11.7L27,97.2c-2,1.2-4.4,1.8-6.7,1.8
			c-2.3,0-4.6-0.6-6.7-1.8c-4.3-2.6-6.7-7-6.6-11.8V14.5c0-4.8,2.6-9.3,6.7-11.7C15.8,1.6,18.1,1,20.4,1 M15.2,15.6h0.1v69.8
			c0,1.9,0.9,3.5,2.6,4.5c0.4,0.3,1.3,0.7,2.5,0.7c0.9,0,1.7-0.2,2.6-0.7l61.3-35.4c2.3-1.5,2.5-3.6,2.5-4.5c0-2.6-1.4-3.9-2.6-4.5
			L22.9,10.1l0,0l0,0c-0.8-0.4-1.6-0.6-2.5-0.6c-1,0-2,0.3-2.6,0.7c-1.6,1-2.6,2.6-2.6,4.5V15.6 M20.4,0c-2.5,0-5,0.6-7.2,1.9
			C8.7,4.5,6,9.3,6,14.5v70.9c-0.1,5.3,2.6,9.9,7.1,12.7c2.3,1.3,4.8,1.9,7.2,1.9s5-0.6,7.2-1.9l61.4-35.4c4.5-2.6,7.2-7.4,7.2-12.5
			c0-5.2-2.7-9.9-7.2-12.5L27.7,1.9C25.4,0.6,22.9,0,20.4,0L20.4,0z M16.2,14.6c0-2.2,1.4-3.2,2.1-3.6c0.4-0.3,1.2-0.5,2.1-0.5
			c0.6,0,1.3,0.1,2.1,0.5l61.4,35.4c1.9,1,2.1,2.8,2.1,3.6s-0.3,2.5-2.1,3.6L22.5,89c-0.8,0.4-1.5,0.6-2.1,0.6c-0.9,0-1.6-0.3-2-0.6
			c-0.6-0.4-2.1-1.4-2.1-3.6V14.6H16.2L16.2,14.6z"/>
	</g>
</g>
</svg>
